<svg id="svg" version="1.1" xmlns="http://www.w3.org/2000/svg" xmlns:xlink="http://www.w3.org/1999/xlink" width="400" height="115" viewBox="0, 0, 400,115"><g id="svgg"><path id="path0" d="M0.000 34.167 L 0.000 68.333 0.456 68.333 C 0.707 68.333,1.700 68.223,2.664 68.088 C 11.007 66.917,13.482 66.550,17.333 65.913 C 34.655 63.044,53.398 58.271,66.083 53.498 C 75.876 49.812,82.316 47.193,87.208 44.904 C 88.698 44.207,91.904 42.741,94.333 41.646 C 96.763 40.552,100.362 38.876,102.333 37.923 C 106.301 36.003,106.994 35.738,115.888 32.724 C 119.295 31.569,123.808 29.931,125.917 29.085 C 140.756 23.126,171.335 16.630,199.643 13.421 C 248.657 7.867,284.504 14.201,313.999 33.629 C 315.329 34.505,318.404 36.509,320.833 38.083 C 323.262 39.657,327.650 42.517,330.583 44.440 C 341.400 51.528,342.357 52.063,353.667 57.334 C 364.736 62.492,379.867 67.428,393.750 70.408 C 395.675 70.821,397.587 71.233,398.000 71.324 C 398.412 71.415,399.031 71.537,399.375 71.596 L 400.000 71.704 400.000 35.852 L 400.000 0.000 200.000 0.000 L 0.000 0.000 0.000 34.167 " stroke="none" fill="#7986b6" fill-rule="evenodd"></path><path id="path1" d="M219.417 11.761 C 187.711 13.480,145.130 21.370,125.917 29.085 C 123.808 29.931,119.295 31.569,115.888 32.724 C 106.994 35.738,106.301 36.003,102.333 37.923 C 100.362 38.876,96.763 40.552,94.333 41.646 C 91.904 42.741,88.698 44.207,87.208 44.904 C 82.316 47.193,75.876 49.812,66.083 53.498 C 53.398 58.271,34.655 63.044,17.333 65.913 C 13.482 66.550,11.007 66.917,2.664 68.088 C 1.700 68.223,0.707 68.333,0.456 68.333 L 0.000 68.333 0.000 91.667 L 0.000 115.000 200.000 115.000 L 400.000 115.000 400.000 93.352 L 400.000 71.704 399.375 71.596 C 399.031 71.537,398.412 71.415,398.000 71.324 C 397.587 71.233,395.675 70.821,393.750 70.408 C 379.867 67.428,364.736 62.492,353.667 57.334 C 342.357 52.063,341.400 51.528,330.583 44.440 C 327.650 42.517,323.262 39.657,320.833 38.083 C 318.404 36.509,315.329 34.505,313.999 33.629 C 288.695 16.961,257.310 9.705,219.417 11.761 " stroke="none" fill="#ffffff" fill-rule="evenodd"></path></g></svg>